# xmcd
#
# Track frame offsets:
#	150
#	14132
#	27497
#	43864
#	63895
#	87115
#	104622
#	115370
#	140585
#	153417
#
# Disc length: 2299 seconds
#
# Revision: 1
# Processed by: cddbd v1.5.2PL0 Copyright (c) Steve Scherf et al.
# Submitted via: audiograbber 1.83.01
#
DISCID=8b08f90a
DTITLE=Workmates - Under cover
DYEAR=1995
DGENRE=Pop
TTITLE0=Workmates - Get it on
TTITLE1=Workmates - Midnight hour
TTITLE2=Workmates - Miss you
TTITLE3=Workmates - Feelgood/out of sight
TTITLE4=Workmates - Hot legs
TTITLE5=Workmates - Every time you go away
TTITLE6=Workmates - Wooly Booly
TTITLE7=Workmates - Baby let's get it on
TTITLE8=Workmates - Half a boy
TTITLE9=Workmates - Runaway
EXTD=
EXTT0=
EXTT1=
EXTT2=
EXTT3=
EXTT4=
EXTT5=
EXTT6=
EXTT7=
EXTT8=
EXTT9=
PLAYORDER=
